<svg xmlns="http://www.w3.org/2000/svg" xmlns:xlink="http://www.w3.org/1999/xlink" viewBox="0 0 17.8 19">
  <defs>
    <path id="a" d="M0 0h17.8v19H0z"/>
  </defs>
  <clipPath id="b">
    <use xlink:href="#a" overflow="visible"/>
  </clipPath>
  <path fill="none" stroke="currentcolor" stroke-miterlimit="10" d="M10.6 7.7h4.3c1.2 0 2 .5 2 1.4 0 1.2-1.2 1.4-1.2 1.4s1.6-.1 1.6 1.4-1.6 1.4-1.6 1.4 1.2.1 1.2 1.4c0 1.5-1.6 1.4-1.6 1.4s.8.1.8 1c0 1-.6 1.4-3.2 1.4H9.3c-2.4 0-3.5-1.2-5.2-1.2H1.7S.5 16.7.5 13.7s.8-4.4.8-4.4 3-.6 4.8-2.4c1.6-1.6 2.6-4.2 2.8-6 0-.3.2-.4.5-.4.7.1 1.9.7 1.9 3.2 0 1.8-.7 4-.7 4z" clip-path="url(#b)" stroke-linecap="round" stroke-linejoin="round"/>
</svg>
