<svg xmlns="http://www.w3.org/2000/svg" viewBox="0 0 26.3 25.5">
  <path d="M19.8 8.8h-.7c0 2.1-.7 4-1.8 5.4-1.1 1.4-2.6 2.2-4.2 2.2s-3.1-.8-4.2-2.2c-1-1.3-1.7-3.2-1.7-5.4 0-2.1.7-4 1.8-5.4 1.1-1.4 2.6-2.2 4.2-2.2s3.1.8 4.2 2.2c1.1 1.4 1.8 3.3 1.8 5.4h1.2c0-2.4-.8-4.6-2.1-6.2C17 1 15.2 0 13.2 0 11.1 0 9.3 1 8 2.6 6.7 4.2 5.9 6.4 5.9 8.8c0 2.4.8 4.6 2.1 6.2 1.3 1.6 3.1 2.6 5.2 2.6s3.9-1 5.2-2.6c1.3-1.6 2.1-3.8 2.1-6.2h-.7z"/>
  <path d="M19.7 17.7c.3.1 1.7.4 3 1.2.6.4 1.2.9 1.7 1.6.4.7.7 1.4.7 2.4 0 .7-.6 1.3-1.3 1.3H2.7c-.7 0-1.3-.6-1.4-1.3 0-1.1.3-1.9.8-2.5.7-1 1.9-1.7 2.8-2.1.5-.2.9-.4 1.2-.4.2 0 .3-.1.4-.1h.1c.4-.1.6-.4.5-.8-.1-.4-.4-.6-.8-.5 0 0-1.6.3-3.1 1.2-.8.5-1.6 1.1-2.2 2-.6.9-1 2-1 3.3 0 1.5 1.2 2.6 2.7 2.6h21c1.5 0 2.6-1.2 2.6-2.6 0-1.3-.4-2.4-1-3.3-.9-1.3-2.3-2.1-3.4-2.6s-2-.6-2-.6c-.4-.1-.7.2-.8.5 0 .3.2.6.6.7z"/>
</svg>
