<svg xmlns="http://www.w3.org/2000/svg" width="45px" height="45px" viewBox="0 0 55.4 54.7"><path d="M55.3 51.2V3.9c-.2-.8.3-6.4-4.8-2.7-5 3.3-18.6 12.4-18.6 12.4s-3.5 3.3-8.5 0C16.8 9.3 4.5 1.2 4.5 1.2S.2-2.3 0 3.6v48s0 4.1 3.7 2.8C5.4 53.3 7.3 52 8.9 51c2.6-2.2 2.6-5.5 2.6-5.5v-5.4c0-6 4-1.8 4-1.8s5.4 3.6 7.8 5.3c4.8 2.5 8 .2 8 .2s6.9-4.6 9.5-6.4c3.2-2.5 3 2.6 3 2.6v3.8s-.4 3.9 2.6 6.5c1.5 1.2 3.3 2.6 4.9 3.9 4.8 2.1 4-3 4-3zM41.2 26l-10.5 7s-3 1.9-6.5 0c-3.2-2.2-10.8-7.2-10.8-7.2s-2-.6-2-3.6v-2.6s-.2-3.9 2.8-1.5l9.9 6.6c3.1 2.4 6.7 0 6.7 0s6.8-4.6 11.1-7.5c1.9-1.4 1.6 1.1 1.6 1.1v3.2c0 .2.4 2.6-2.3 4.5z" class="flex"/></svg>
