<svg xmlns="http://www.w3.org/2000/svg" id="Layer_1" viewBox="0 0 7.9 13.5">
  <path fill='currentcolor' d="M4 0C2.1 0 .5 1.6.5 3.5S2.1 7 4 7s3.5-1.6 3.5-3.5S5.9 0 4 0zm0 5c-.8 0-1.5-.7-1.5-1.5S3.2 2.1 4 2.1s1.4.6 1.4 1.4S4.8 5 4 5zm1.2 4.8c1.4-.3 2.2-1 2.3-1 .4-.3.5-.9.2-1.3-.4-.4-1-.5-1.4-.2 0 0-.9.7-2.3.7-1.5 0-2.4-.7-2.4-.7-.5-.3-1.1-.2-1.4.2-.3.4-.3 1 .1 1.3 0 0 .9.7 2.4 1l-2 2.1c-.4.4-.4 1 0 1.3.2.2.4.3.7.3.2 0 .5-.1.7-.3l1.9-2 2.1 2c.4.4 1 .4 1.3 0 .4-.4.4-1 0-1.3L5.2 9.8zM4 8c-.1 0 0 0 0 0-.1 0 0 0 0 0z" class="st0"/>
</svg>
