<svg xmlns="http://www.w3.org/2000/svg" id="Layer_1" width="47" height="47" viewBox="0 0 336.2 335.7">
  <style>
    .stphoone0{fill:#010101;}
  </style>
  <path d="M238.9 335.1s26.6 4.6 60.4-12.8c.7-.4 1.4-.8 2.2-1.1.5-.3 1-.5 1.5-.8 7.9-4.4 15.1-9.2 21.2-13.7.8-.6 4.5-3.2 5.4-3.9 4.1-3.4 6.7-8.4 6.7-14.2 0-5.4-2.4-10.4-6.2-13.6l-75-61.8c-3.1-2.5-7.1-4.1-11.4-4.1-4.9 0-9.4 1.9-12.6 5-1.3 1.3-12.5 12.8-12.5 12.8-7.8 7.8-20.4 7.8-28.3 0l-76.5-76.6c-7.8-7.8-7.8-20.5 0-28.3l12.4-12.4c3.3-3.3 5.2-7.8 5.2-12.7 0-4.9-1.9-9.3-5-12.5L62.1 6.6C58.7 2.6 53.6 0 48 0c-6 0-11.3 2.9-14.6 7.4l-1.1 1.4C18.3 27.7 0 57.7 0 85.9 0 160 157.8 320.8 238.9 335.1z" class="stphoone0"/>
</svg>
