<svg xmlns="http://www.w3.org/2000/svg" width="186.99" height="223.89" viewBox="0 0 186.98743 223.89284">
  <path d="M23.127 190.83l-.12664-31.616-7.012-.13653-7.012-.13653v-22.582l7.012-.13652 7.012-.13653.14149-4.5517.14148-4.5517h-14.307v-23.128h14.27v-102.41l50.314.18628c54.948.20343 55.173.21444 64.539 3.1567 4.8902 1.5363 11.848 4.9624 15.792 7.7762 3.3574 2.3953 10.604 9.7442 12.869 13.051 3.8365 5.6002 7.8243 16.122 10.071 26.572 1.5467 7.1945 1.578 20.25.0643 26.847-1.995 8.695-5.582 16.075-11.825 24.328-11.433 15.116-25.046 21.644-48.214 23.122-4.2594.27172-21.648.49483-38.64.49579l-30.896.002.14148 4.5517.14148 4.5517 43.917.12566 43.917.12566v22.63h-88.08v63.478h-24.104l-.12663-31.616zm97.553-87.66c10.075-1.6466 16.109-5.3661 21.606-13.317 8.142-11.778 10.39-26.834 6.1778-41.371-2.5607-8.8363-6.2186-14.023-13.382-18.975-6.1474-4.2497-3.8638-4.0494-48.477-4.252l-39.243-.17818v78.78l34.568-.002c27.16-.001 35.464-.14837 38.751-.68549z"/>
</svg>
