<svg xmlns="http://www.w3.org/2000/svg" id="Layer_1" viewBox="0 0 10.1 14.7">
  <path d="M9.6 3.5c0 .4 0 .7-.1 1.1-.1.3-.3.7-.5 1s-.4.5-.8.7c-.3.3-.7.4-1.1.5V7c.4 0 .8.1 1.1.3s.7.4 1 .7.5.6.6 1c.2.4.2.9.2 1.4 0 .7-.2 1.4-.5 1.9s-.7 1-1.3 1.3c-.5.3-1.1.6-1.8.8-.7.2-1.4.2-2.1.2H2.2s-.8-.1-1.3-.1c-.4 0-.8-.1-1.2-.2V.3C0 .3.3.2.6.2.9.2 1.3.1 1.7.1c.4 0 .8 0 1.2-.1h1.2c.7 0 1.3.1 2 .2S7.5.4 8 .7s.9.6 1.2 1.1c.3.4.4 1 .4 1.7zm-6 2.7h.7s.5 0 .6-.1c.5-.2 1-.4 1.4-.7s.6-.7.6-1.3c0-.4-.1-.6-.2-.9-.2-.2-.4-.4-.6-.5-.3-.1-.5-.2-.8-.3-.3 0-.6-.1-.9-.1h-1c-.3 0-.5 0-.7.1v3.8h.9zm.9 6.1c.3 0 .7 0 1-.1.3-.1.6-.2.8-.4l.6-.6c.1-.2.2-.5.2-.9s-.1-.8-.3-1.1-.3-.4-.6-.5c-.3-.1-.6-.2-1-.3-.4 0-.7-.1-1.1-.1H2.7v3.9c.1 0 .2 0 .3.1h1.5z"/>
</svg>
